<?xml version="1.0" encoding="UTF-8" standalone="no"?>
<svg
   xmlns:dc="http://purl.org/dc/elements/1.1/"
   xmlns:cc="http://creativecommons.org/ns#"
   xmlns:rdf="http://www.w3.org/1999/02/22-rdf-syntax-ns#"
   xmlns:svg="http://www.w3.org/2000/svg"
   xmlns="http://www.w3.org/2000/svg"
   viewBox="0 0 462.66666 136"
   height="136"
   width="462.66666"
   xml:space="preserve"
   id="svg2"
   version="1.1"><metadata
     id="metadata8"><rdf:RDF><cc:Work
         rdf:about=""><dc:format>image/svg+xml</dc:format><dc:type
           rdf:resource="http://purl.org/dc/dcmitype/StillImage" /></cc:Work></rdf:RDF></metadata><defs
     id="defs6" /><g
     transform="matrix(1.3333333,0,0,-1.3333333,0,136)"
     id="g10"><g
       transform="scale(0.1)"
       id="g12"><path
         id="path14"
         style="fill:#e34247;fill-opacity:1;fill-rule:evenodd;stroke:none"
         d="m 654.531,695.109 v 36.801 l 33.59,1.211 v -48.75 c -11.172,3.59 -22.34,7.188 -33.59,10.738 z M 399.02,664.801 c 5.781,1.019 11.601,1.91 17.46,2.699 -5.82,1.398 -11.64,2.809 -17.46,4.172 z m -87.418,-21.84 c 25.039,8.25 50.507,14.961 76.488,19.891 v 11.437 c -25.36,6.02 -50.86,11.922 -76.488,17.742 z M 270.621,628 c 9.93,3.988 19.969,7.781 30.039,11.289 v 55.199 c -10,2.262 -20,4.492 -30.039,6.723 z M 172.27,580.109 c 28.511,16.25 57.652,30.86 87.421,43.403 v 80.117 c -28.992,6.402 -58.132,12.73 -87.421,18.902 z M 95.7812,531.75 c 21.4888,14.891 43.3598,28.949 65.5898,42 v 151.129 c -21.801,4.57 -43.641,9.141 -65.5898,13.633 z M 900.82,551.91 V 435 c 11.41,-21.102 22.231,-43.012 32.301,-65.43 v 168.86 c -10.699,4.531 -21.48,9.031 -32.301,13.48 z m -38.59,15.352 V 499.879 C 873.32,483 884.141,465.07 894.531,446.441 v 108.008 c -10.703,4.332 -21.48,8.59 -32.301,12.813 z m -19.769,-38.75 v 46.328 c -8.051,3.051 -16.09,6.09 -24.223,9.101 v -24.179 c 8.133,-9.762 16.211,-20.231 24.223,-31.25 z m 6.289,43.949 v -52.742 c 2.422,-3.399 4.801,-6.867 7.191,-10.391 v 60.352 c -2.39,0.941 -4.769,1.84 -7.191,2.781 z M 0,459.02 V 757.852 C 28.3984,752.219 56.6797,746.52 84.8789,740.738 V 524.141 C 55.9414,503.629 27.6602,481.789 0,459.02 Z M 0,315.969 v 9.961 c 80.1211,93.242 166.371,174.461 253.91,235.629 99.41,69.531 200.539,113.242 296.36,119.531 v 12.262 C 404.879,737.891 158.199,796.25 0,834.68 V 843 c 142.301,-34.609 365.859,-88.32 512.699,-130.781 47.891,-13.867 94.84,-30 142.34,-45.547 l 103.16,-33.781 2.192,-0.711 v -14.45 c 12.5,-8.16 24.961,-16.878 36.879,-26.089 4.921,-1.801 9.8,-3.602 14.679,-5.391 v -19.109 c -4.527,5.238 -9.097,10.281 -13.629,15.078 -13.75,11.019 -28.32,21.25 -43.011,30.82 l -1.438,0.941 v 13.282 l -197.07,64.527 v -16.988 l -3.211,-0.199 C 458.09,669.172 356.988,625.699 257.461,556.129 168.629,494.02 81.1289,411.172 0,315.969 Z M 150.621,1017.3 h 700.238 c 82.692,0 150.391,-67.581 150.621,-150.23 l -29.531,-1.058 V 762.57 l -29.058,-1.05 0.507,47.582 -9.57,5.738 -41.098,-12.77 -6.21,-11.179 v -73.36 l -16.641,-0.621 v 27.192 l -12.809,-0.473 v 65.351 l -12.23,-0.429 v 26.679 l -13.281,-0.468 V 817.73 l -11.25,-0.429 v -80.43 l -9.18,-0.312 v -22.661 l -18.789,-0.66 V 815.23 l -26.988,-0.98 -30.043,-26.172 V 700 l -7.5,-0.281 v 47.351 l -9.289,-0.32 -10.04,-9.141 v -43.668 l -7.152,-2.461 V 680.07 C 812.578,643.711 916.602,605.352 1001.48,566.988 V 546.75 C 745.391,668.078 285.27,791.32 0,853.898 v 12.774 C 0,949.531 67.7695,1017.3 150.621,1017.3 Z" /><path
         id="path16"
         style="fill:#16439d;fill-opacity:1;fill-rule:evenodd;stroke:none"
         d="m 1001.48,169.141 v -2.7 C 1001.48,83.5898 933.711,15.8203 850.859,15.8203 H 150.621 C 67.7695,15.8203 0,83.5898 0,166.441 v 65.547 C 175.66,443.121 350.82,595.539 515.469,626.359 655.16,628.781 825.039,491.91 888.09,210.422 L 125.621,169.141 Z" /><path
         id="path18"
         style="fill:#e34247;fill-opacity:1;fill-rule:evenodd;stroke:none"
         d="m 1371.6,606.172 h -141.87 v 371.207 c 0,10.312 -7.35,18.32 -17.78,18.32 h -75.39 c -8.9,0 -16.68,-7.578 -16.68,-16.488 v -446.32 c 0,-11.25 6.76,-19.731 18.52,-19.731 h 233.75 c 10,0 17.38,7.418 17.38,17.34 v 58.051 c 0,10.199 -7.62,17.621 -17.93,17.621 z m 210.39,396.398 c -168.36,-0.7 -227.85,-180.66 -196.95,-325.66 2.69,-12.539 6.05,-24.691 10.16,-36.289 9.25,-26.48 26.6,-57.812 46.25,-78.75 32.34,-34.531 76.91,-55.473 133.67,-55.59 95.39,-0.152 161.05,52.891 188.83,144.11 20.23,66.519 20.7,156.679 -5.08,225.347 -29.77,79.223 -89.92,126.442 -176.88,126.832 z m -3.12,-90.5 c 49.18,-0.398 71.01,-52.148 79.06,-95.121 10.82,-57.699 8.55,-170.668 -42.42,-208.277 -21.64,-15.942 -51.92,-15.711 -73.56,-0.082 -52.61,37.851 -54.96,147.422 -44.02,206.289 8.2,44.101 30.31,96.793 80.94,97.191 z m 392.03,83.629 h -77.11 c -9.26,0 -16.45,-8.629 -16.45,-17.539 V 681.711 c 0,-66.289 -23.36,-89.68 -86.48,-80.742 -1.29,0.203 -2.54,0.39 -3.79,0.633 -10.98,1.867 -18.28,-6.063 -19.53,-16.454 l -6.64,-56.437 c -1.68,-9.141 4.69,-15.391 13.28,-17.43 46.56,-11.133 112.93,-4.679 148.91,16.758 51.99,30.981 63.98,94.961 64.1,154.922 V 978.98 c 0,8.79 -7.31,16.719 -16.29,16.719 z m 265.86,0 h -113.52 c -9.61,0 -14.26,-5.429 -16.72,-14.808 L 1988.24,532.809 c -2.65,-10.161 6.37,-19.649 16.37,-19.649 h 77.58 c 7.5,0 12.85,3.711 14.61,11.25 l 23.59,101.129 h 111.13 l 24.93,-99.648 c 2.03,-8.2 6.67,-12.731 15.31,-12.731 h 80.15 c 11.61,0 18.64,10.391 15.9,21.168 L 2253.4,980.93 c -2.31,8.992 -6.6,14.769 -16.64,14.769 z m -103.24,-287.148 21.83,96.758 c 1.49,6.953 2.93,14.691 4.61,23.32 1.64,8.512 3.4,17.34 5.2,26.519 1.75,9.262 3.51,18.204 5.19,26.922 1.76,8.86 3.44,16.989 5,24.371 h 1.25 c 1.56,-7.382 3.2,-15.429 5,-24.14 1.76,-8.629 3.52,-17.582 5.28,-26.641 1.79,-9.058 3.55,-18.012 5.31,-26.519 1.76,-8.641 3.43,-16.571 5,-23.832 l 21.21,-96.758 z m 536.4,275.859 c -49.41,21.13 -122.62,22.93 -171.25,6.168 -61.44,-21.168 -99.88,-69.918 -99.76,-134.726 0.11,-66.442 53.08,-111.563 115.47,-139.801 32.89,-14.879 71.79,-31.91 71.79,-68.051 0,-53.16 -68.71,-52.07 -107.38,-45.148 -15.86,2.847 -33.2,7.57 -48.71,13.628 -8.56,3.321 -19.38,-1.601 -21.25,-10.859 l -11.99,-59.223 c -1.84,-8.976 0.66,-16.796 9.57,-20.468 30.82,-12.692 75.19,-18.942 106.71,-19.02 97.23,-0.121 183.25,47.031 183.52,150.469 0.2,70.699 -45.23,113.242 -108.59,141.68 -24.77,11.132 -58.71,26.761 -71.29,43.472 -18.71,24.891 -4.69,67.66 55.66,67.66 23.99,-0.043 48.05,-4.531 69.57,-13.05 8.17,-1.012 15.28,2.539 19.06,9.5 l 15,65.859 c -0.46,4.641 -2.57,8.82 -6.13,11.91 z m 460.04,-49.648 h -49.02 c -9.92,0 -12.74,-7.153 -12.74,-11.332 v -74.141 c 0,-19.879 0.32,-39.141 0.86,-57.93 0.59,-18.75 1.37,-36.48 2.46,-53.238 1.02,-16.801 2.23,-32.23 3.64,-46.211 h -0.94 c -3.4,9.141 -7.03,18.629 -11.06,28.629 -4.02,9.961 -8.2,19.961 -12.46,30 -4.33,10.082 -8.67,19.922 -13,29.34 -4.42,9.449 -8.6,18.199 -12.7,26.25 l -57.19,120 c -3.86,6.832 -9.61,8.633 -14.18,8.633 h -62.61 c -10.9,-0.621 -14.57,-5.121 -14.57,-13.364 V 589.879 c 0,-7.188 1.71,-14.059 13.86,-14.059 h 48.48 c 6.68,0 11.01,3.942 11.01,11.871 v 76.368 c 0,32.113 -0.46,61.679 -1.25,88.671 -0.78,26.989 -1.79,50.981 -2.93,71.95 h 1.84 c 3.24,-9.328 6.95,-19.102 11.02,-29.289 3.98,-10.243 8.24,-20.551 12.65,-30.903 4.42,-10.429 8.91,-20.59 13.4,-30.429 4.49,-9.887 8.91,-19.098 13.09,-27.778 l 58.12,-120.972 c 3.05,-5.079 6.8,-9.489 14.61,-9.489 h 59.73 c 8.9,0 11.48,3.86 11.48,13.508 v 333.32 c 0,9.18 -3.98,12.114 -11.6,12.114 z m 193.09,5.078 c -19.34,-0.078 -37,-3.238 -52.93,-9.488 -15.94,-6.293 -30.12,-15.204 -42.39,-26.571 -12.3,-11.359 -22.69,-24.84 -31.21,-40.23 -8.43,-15.473 -14.84,-32.422 -19.18,-50.86 -4.33,-18.402 -6.6,-37.73 -6.6,-58.089 0,-19.84 1.96,-38.782 5.82,-56.993 3.87,-18.078 9.77,-34.879 17.5,-50.269 7.82,-15.391 17.66,-28.789 29.34,-40.238 11.76,-11.481 25.51,-20.352 41.21,-26.711 15.82,-6.332 33.51,-9.61 53.32,-9.692 22.77,0 43.36,4.063 61.84,12.11 18.59,7.929 34.45,19.961 47.85,35.82 13.28,15.859 23.59,35.582 30.78,59.262 7.19,23.629 10.82,51.007 10.9,82.257 0,14.653 -1.14,29.18 -3.56,43.633 -2.38,14.5 -6.09,28.36 -11.13,41.719 -5.04,13.398 -11.45,25.859 -19.26,37.23 -7.81,11.442 -17.11,21.372 -27.93,29.961 -10.86,8.52 -23.24,15.161 -37.22,19.879 -14.03,4.809 -29.73,7.192 -47.15,7.27 z m -2.31,-67.309 c 10.43,-0.07 19.57,-3.203 27.38,-9.14 7.9,-6.051 14.42,-14.332 19.65,-24.922 5.2,-10.578 9.14,-22.848 11.76,-36.68 2.58,-13.867 3.91,-28.629 3.91,-44.41 0,-17.578 -1.33,-33.668 -3.99,-48.207 -2.69,-14.57 -6.64,-27.184 -11.91,-37.774 -5.24,-10.617 -11.76,-18.789 -19.57,-24.527 -7.81,-5.82 -16.88,-8.75 -27.23,-8.832 -10.39,0.082 -19.49,3.012 -27.5,8.75 -8.01,5.82 -14.76,13.949 -20.19,24.461 -5.47,10.5 -9.57,22.961 -12.39,37.301 -2.77,14.371 -4.06,30.16 -4.02,47.418 0,15.551 1.33,30.351 3.87,44.261 2.65,13.942 6.52,26.329 11.79,37.149 5.32,10.82 12,19.449 20.04,25.621 8.05,6.289 17.46,9.461 28.4,9.531 z" /><path
         id="path20"
         style="fill:#16439d;fill-opacity:1;fill-rule:evenodd;stroke:none"
         d="m 1136.99,21.0117 h 60.55 c 10.19,0 17.23,5.3867 17.23,17.8477 V 170.699 c 3.28,-0.238 6.87,-0.469 10.93,-0.699 3.99,-0.238 8.32,-0.359 12.93,-0.359 11.06,0 22.62,0.75 34.73,2.5 12.03,1.757 24.1,4.769 36.05,8.871 12.04,4.136 23.44,9.687 34.11,16.718 10.74,7.149 20.31,15.942 28.63,26.598 8.32,10.594 14.96,23.203 19.73,37.852 4.8,14.73 7.26,31.84 7.3,51.172 0.04,13.128 -1.72,25.589 -5.04,37.617 -3.36,11.922 -8.16,22.972 -14.49,32.972 -6.33,10.039 -13.95,18.59 -22.77,25.938 -14.07,11.793 -31.37,20.351 -51.88,25.512 -20.62,5.148 -44.65,7.687 -72.3,7.57 -23.87,-0.07 -45.32,-0.891 -64.11,-2.5 -8.28,-0.742 -16.05,-1.359 -23.28,-2.383 -23.47,-3.238 -25.43,-13.828 -25.43,-28.508 V 41.4414 c 0,-10.6602 1.88,-20.4297 17.11,-20.4297 z m 77.78,344.4103 c 2.73,0.898 6.6,1.609 11.6,2.269 4.88,0.629 10.66,0.981 17.15,0.981 12.77,0 23.63,-2.313 32.81,-6.883 9.18,-4.527 16.13,-11.25 21.09,-20.148 4.88,-8.832 7.38,-19.77 7.38,-32.621 0,-12.739 -2.65,-23.95 -7.85,-33.629 -5.19,-9.653 -12.85,-17.153 -22.97,-22.582 -10.11,-5.43 -22.69,-8.278 -37.5,-8.321 -4.8,-0.039 -8.86,0.114 -12.3,0.352 -3.32,0.23 -6.48,0.43 -9.41,0.699 z m 358.63,74.848 h -75.55 c -18.28,0 -23.12,-8.442 -26.6,-21.059 L 1371.52,41.0117 c -2.85,-9.3008 -0.54,-20 13.28,-20 h 60.55 c 17.46,0 18.87,5.7774 21.37,17.2695 l 18.75,80.3908 h 96.52 l 20.12,-80.3908 c 2.15,-10.082 7.69,-16.9609 21.37,-17.2695 h 63.59 c 11.29,0 16.21,7.5 13.63,17.2695 l -97.38,380.1878 c -5.04,18.871 -11.91,21.801 -29.92,21.801 z m -76.52,-249.489 18.94,84.059 c 1.41,6.051 2.54,12.769 3.98,20.23 1.45,7.43 3.01,15.121 4.54,23.09 1.56,8.051 3.04,15.82 4.53,23.399 1.48,7.691 2.97,14.722 4.33,21.171 h 1.1 c 1.32,-6.449 2.77,-13.402 4.33,-20.98 1.53,-7.5 3.05,-15.27 4.61,-23.16 1.53,-7.852 3.09,-15.629 4.61,-23.051 1.53,-7.5 2.97,-14.367 4.34,-20.699 l 18.43,-84.059 z m 443.2,28.199 c 13.01,5.161 24.72,12.661 35.19,22.5 10.39,9.84 18.71,21.641 24.85,35.27 6.13,13.641 9.37,28.75 9.41,45.281 0.04,19.059 -2.93,35.348 -8.44,48.899 -5.43,13.48 -12.77,24.648 -22.03,33.558 -9.33,8.903 -19.72,15.903 -31.29,21.133 -11.56,5.231 -23.59,9.098 -35.97,11.559 -12.39,2.5 -24.42,4.101 -36.06,4.808 -11.68,0.703 -22.26,1.012 -31.64,0.973 -14.57,-0.039 -28.55,-0.391 -42.11,-1.172 -13.67,-0.777 -26.4,-1.789 -38.51,-3.039 -3.75,-0.398 -7.43,-0.828 -10.94,-1.25 -19.18,-2.43 -21.8,-12.738 -21.8,-23.949 V 40.6211 c 0,-9.2227 4.69,-19.6094 18.4,-19.6094 h 58.87 c 10.31,0 17.65,3.3594 17.65,17.5391 V 184.289 h 18.44 c 10.59,0 19.49,-1.68 26.64,-5.43 7.15,-3.75 13.09,-10.347 17.74,-19.718 4.64,-9.422 8.4,-22.621 11.48,-39.422 3.05,-16.559 6.29,-31.4378 9.49,-44.7971 3.21,-13.4024 6.29,-24.6914 9.03,-33.9102 4.02,-13.5508 10.15,-20 24.72,-20 h 58.83 c 15.39,0 17.97,9.2969 15.43,18.8281 -2.69,8.3204 -5.12,18.0508 -7.77,29.0196 -2.66,10.9023 -5.47,22.3906 -8.21,34.3396 -2.77,11.91 -5.54,23.59 -8.24,34.961 -3.16,13.399 -7.15,25.352 -11.76,35.699 -4.6,10.43 -10.27,19.219 -16.99,26.411 -6.76,7.261 -14.92,12.73 -24.41,16.558 z m -114.42,35.821 v 113.32 c 2.7,0.82 6.61,1.559 11.84,1.988 5.16,0.469 11.48,0.711 19.06,0.743 5.71,0.039 11.84,-0.661 18.36,-2.18 6.6,-1.531 12.81,-4.344 18.71,-8.402 5.94,-4.098 10.82,-9.879 14.53,-17.348 3.79,-7.531 5.86,-17.184 5.9,-29.024 0.04,-11.476 -2.54,-21.718 -7.5,-30.546 -4.96,-8.782 -12.22,-15.704 -21.72,-20.782 -9.37,-5.039 -20.86,-7.769 -34.25,-7.769 z m 829.22,7.578 H 2551.8 c -12,0 -17.42,-8.359 -17.42,-16.598 V 205.23 c 0,-8.871 4.96,-18.242 15.85,-18.242 h 24.11 c 5.35,0 9.92,-0.937 9.92,-10.429 v -64.137 c 0,-7.973 -1.17,-15.0822 -11.84,-16.172 -5.15,-0.6289 -11.09,-0.8984 -17.97,-0.8984 -14.49,0 -27.97,2.6484 -40.43,8.0004 -12.57,5.429 -23.47,13.597 -32.89,24.539 -9.45,10.929 -16.87,24.57 -22.15,41.089 -5.27,16.559 -8.12,35.899 -8.12,58.161 0,23.828 3.12,44.257 9.02,61.371 5.94,17.066 14.22,31.09 24.89,41.91 10.66,10.859 23.12,18.906 37.5,24.066 14.29,5.114 29.92,7.731 46.83,7.692 11.72,-0.039 22.15,-0.578 31.37,-1.828 9.3,-1.211 17.42,-3.25 24.92,-4.961 16.52,-3.75 21.52,2.379 23.59,11.398 l 8.83,38.949 c 3.67,17.774 -2.81,26.403 -17.97,29.723 -9.64,2.148 -20.5,4.57 -32.89,6.18 -12.38,1.558 -25.86,2.418 -40.58,2.418 -23.6,0 -46.17,-2.887 -67.62,-8.668 -21.48,-5.789 -41.21,-14.379 -59.22,-25.942 -17.97,-11.558 -33.59,-26.058 -46.87,-43.398 -13.32,-17.34 -23.71,-37.621 -31.02,-60.742 -7.3,-23.129 -11.05,-49.258 -11.13,-78.168 -0.04,-21.993 2.22,-42.852 6.52,-62.571 4.3,-19.769 10.63,-37.898 19.14,-54.422 8.56,-16.4761 19.22,-30.7769 31.84,-43.0464 16.76,-16.211 37.22,-28.6719 61.56,-37.1016 24.3,-8.4805 52.97,-12.6992 85.94,-12.7812 11.33,0 22.69,0.5898 34.1,1.8007 11.29,1.211 22.3,2.8086 32.81,4.8008 10.59,2 20.24,4.0703 29.1,6.4102 17.35,4.6093 22.78,18.4804 22.78,30.2695 v 182.031 c 0,15.117 -7.82,19.848 -19.42,19.848 z m 337.97,177.891 h -61.17 c -10.63,0 -16.84,-8.75 -16.84,-19.02 V 186.641 c 0,-22.231 -2.26,-40.161 -6.75,-53.789 -4.54,-13.75 -11.14,-23.711 -19.65,-29.93 -8.56,-6.2501 -18.99,-9.2111 -31.1,-9.2111 -11.83,0 -21.99,3.1172 -30.43,9.6411 -8.55,6.609 -15,16.757 -19.53,30.398 -4.61,13.75 -6.99,31.359 -6.99,52.891 v 236.437 c 0,9.301 -3.83,17.192 -19.92,17.192 h -57.46 c -12.97,-0.551 -18.05,-9.02 -18.05,-18.168 V 198 c 0,-60.621 12.31,-106.1719 37.15,-136.8281 24.88,-30.711 62.73,-46.0625 113.63,-46.1016 33.52,-0.0391 61.72,6.8789 84.69,20.5078 22.93,13.5938 40.27,33.9102 52.07,60.8203 11.8,26.9536 17.81,60.4726 17.81,100.5506 V 422.18 c 0,13.91 -8.55,18.09 -17.46,18.09 z M 3374.38,21.0117 h 54.06 c 15.54,0 19.61,10.6289 19.88,21.2071 V 421.52 c 0,14.531 -10.2,18.75 -19.88,18.75 h -56.45 c -17.58,0 -19.14,-10.668 -19.14,-20.348 V 46.2109 c 0,-10.4297 4.53,-25.1992 21.53,-25.1992 z M 2240.59,440.27 h -75.55 c -18.28,0 -23.13,-8.442 -26.6,-21.059 L 2038.71,41.0117 c -2.85,-9.3008 -0.55,-20 13.32,-20 h 60.51 c 17.5,0 18.87,5.7774 21.37,17.2695 l 18.75,80.3908 h 96.56 l 20.08,-80.3908 c 2.15,-10.082 7.69,-16.9609 21.36,-17.2695 h 63.64 c 11.25,0 16.17,7.5 13.59,17.2695 l -97.38,380.1878 c -5.04,18.871 -11.92,21.801 -29.92,21.801 z m -76.53,-249.489 18.99,84.059 c 1.36,6.051 2.5,12.769 3.98,20.23 1.41,7.43 2.97,15.121 4.49,23.09 1.57,8.051 3.05,15.82 4.53,23.399 1.49,7.691 2.97,14.722 4.34,21.171 h 1.09 c 1.37,-6.449 2.78,-13.402 4.34,-20.98 1.52,-7.5 3.09,-15.27 4.61,-23.16 1.52,-7.852 3.09,-15.629 4.61,-23.051 1.56,-7.5 2.93,-14.367 4.34,-20.699 l 18.43,-84.059 z M 3202.03,440.27 h -75.51 c -18.28,0 -23.16,-8.442 -26.64,-21.059 L 3000.2,41.0117 c -2.9,-9.3008 -0.55,-20 13.28,-20 h 60.54 c 17.46,0 18.87,5.7774 21.37,17.2695 l 18.75,80.3908 h 96.52 l 20.12,-80.3908 c 2.11,-10.082 7.7,-16.9609 21.37,-17.2695 h 63.59 c 11.29,0 16.21,7.5 13.64,17.2695 l -97.39,380.1878 c -5.04,18.871 -11.91,21.801 -29.96,21.801 z m -76.52,-249.489 18.98,84.059 c 1.37,6.051 2.54,12.769 3.99,20.23 1.44,7.43 3,15.121 4.53,23.09 1.52,8.051 3.04,15.82 4.53,23.399 1.48,7.691 2.97,14.722 4.34,21.171 h 1.05 c 1.37,-6.449 2.81,-13.402 4.37,-20.98 1.53,-7.5 3.05,-15.27 4.61,-23.16 1.53,-7.852 3.09,-15.629 4.61,-23.051 1.53,-7.5 2.93,-14.367 4.34,-20.699 l 18.44,-84.059 z" /></g></g></svg>